<mxfile host="Electron" modified="2024-05-04T01:12:30.611Z" agent="Mozilla/5.0 (Windows NT 10.0; Win64; x64) AppleWebKit/537.36 (KHTML, like Gecko) draw.io/24.2.5 Chrome/120.0.6099.109 Electron/28.1.0 Safari/537.36" etag="AC2dzlMxByLbloNgPRs3" version="24.2.5" type="device">
  <diagram name="Page-1" id="ezWERZM7cqdSswIlB_YG">
    <mxGraphModel dx="2280" dy="830" grid="1" gridSize="10" guides="1" tooltips="1" connect="1" arrows="1" fold="1" page="1" pageScale="1" pageWidth="850" pageHeight="1100" math="0" shadow="0">
      <root>
        <mxCell id="0" />
        <mxCell id="1" parent="0" />
        <mxCell id="E7TBdnryxwROGaCkr57B-3" style="edgeStyle=orthogonalEdgeStyle;rounded=0;orthogonalLoop=1;jettySize=auto;html=1;exitX=0;exitY=0.5;exitDx=0;exitDy=0;entryX=0.5;entryY=0;entryDx=0;entryDy=0;" edge="1" parent="1" source="E7TBdnryxwROGaCkr57B-1" target="E7TBdnryxwROGaCkr57B-2">
          <mxGeometry relative="1" as="geometry" />
        </mxCell>
        <mxCell id="E7TBdnryxwROGaCkr57B-1" value="There is something wrong with Mountain Hall..." style="rounded=1;whiteSpace=wrap;html=1;fillColor=#6a00ff;fontColor=#ffffff;strokeColor=#3700CC;" vertex="1" parent="1">
          <mxGeometry x="360" y="40" width="120" height="60" as="geometry" />
        </mxCell>
        <mxCell id="E7TBdnryxwROGaCkr57B-10" value="" style="edgeStyle=orthogonalEdgeStyle;rounded=0;orthogonalLoop=1;jettySize=auto;html=1;strokeColor=#A680B8;" edge="1" parent="1" source="E7TBdnryxwROGaCkr57B-2" target="E7TBdnryxwROGaCkr57B-9">
          <mxGeometry relative="1" as="geometry" />
        </mxCell>
        <mxCell id="E7TBdnryxwROGaCkr57B-21" style="edgeStyle=orthogonalEdgeStyle;rounded=0;orthogonalLoop=1;jettySize=auto;html=1;exitX=1;exitY=0.5;exitDx=0;exitDy=0;entryX=0;entryY=0.5;entryDx=0;entryDy=0;" edge="1" parent="1" source="E7TBdnryxwROGaCkr57B-2" target="E7TBdnryxwROGaCkr57B-4">
          <mxGeometry relative="1" as="geometry" />
        </mxCell>
        <mxCell id="E7TBdnryxwROGaCkr57B-2" value="What is MH like normally?" style="rounded=1;whiteSpace=wrap;html=1;fillColor=#1ba1e2;fontColor=#ffffff;strokeColor=#006EAF;" vertex="1" parent="1">
          <mxGeometry x="160" y="120" width="120" height="60" as="geometry" />
        </mxCell>
        <mxCell id="E7TBdnryxwROGaCkr57B-18" style="edgeStyle=orthogonalEdgeStyle;rounded=0;orthogonalLoop=1;jettySize=auto;html=1;exitX=1;exitY=0.5;exitDx=0;exitDy=0;entryX=0.5;entryY=0;entryDx=0;entryDy=0;strokeColor=#A680B8;" edge="1" parent="1" source="E7TBdnryxwROGaCkr57B-4" target="E7TBdnryxwROGaCkr57B-15">
          <mxGeometry relative="1" as="geometry">
            <mxPoint x="220" y="400" as="targetPoint" />
          </mxGeometry>
        </mxCell>
        <mxCell id="E7TBdnryxwROGaCkr57B-4" value="What is happening that is not normal?" style="rounded=1;whiteSpace=wrap;html=1;fillColor=#1ba1e2;fontColor=#ffffff;strokeColor=#006EAF;" vertex="1" parent="1">
          <mxGeometry x="540" y="120" width="120" height="60" as="geometry" />
        </mxCell>
        <mxCell id="E7TBdnryxwROGaCkr57B-30" style="edgeStyle=orthogonalEdgeStyle;rounded=0;orthogonalLoop=1;jettySize=auto;html=1;exitX=0.5;exitY=1;exitDx=0;exitDy=0;endArrow=none;endFill=0;dashed=1;" edge="1" parent="1" source="E7TBdnryxwROGaCkr57B-6">
          <mxGeometry relative="1" as="geometry">
            <mxPoint x="420" y="440" as="targetPoint" />
          </mxGeometry>
        </mxCell>
        <mxCell id="E7TBdnryxwROGaCkr57B-6" value="This isnt right, and I want to change it." style="rounded=1;whiteSpace=wrap;html=1;fillColor=#0050ef;fontColor=#ffffff;strokeColor=#001DBC;" vertex="1" parent="1">
          <mxGeometry x="360" y="180" width="120" height="60" as="geometry" />
        </mxCell>
        <mxCell id="E7TBdnryxwROGaCkr57B-22" style="edgeStyle=orthogonalEdgeStyle;rounded=0;orthogonalLoop=1;jettySize=auto;html=1;exitX=1;exitY=0.5;exitDx=0;exitDy=0;entryX=0;entryY=0.5;entryDx=0;entryDy=0;" edge="1" parent="1" source="E7TBdnryxwROGaCkr57B-9" target="E7TBdnryxwROGaCkr57B-6">
          <mxGeometry relative="1" as="geometry" />
        </mxCell>
        <mxCell id="E7TBdnryxwROGaCkr57B-9" value="Council of Houses&lt;div&gt;King Suremantle&lt;/div&gt;&lt;div&gt;Metals Trade / War Profiteering&lt;/div&gt;" style="rounded=1;whiteSpace=wrap;html=1;fillColor=#76608a;fontColor=#ffffff;strokeColor=#432D57;" vertex="1" parent="1">
          <mxGeometry x="20" y="260" width="120" height="130" as="geometry" />
        </mxCell>
        <mxCell id="E7TBdnryxwROGaCkr57B-23" style="edgeStyle=orthogonalEdgeStyle;rounded=0;orthogonalLoop=1;jettySize=auto;html=1;exitX=0;exitY=0.5;exitDx=0;exitDy=0;entryX=1;entryY=0.5;entryDx=0;entryDy=0;" edge="1" parent="1" source="E7TBdnryxwROGaCkr57B-15" target="E7TBdnryxwROGaCkr57B-6">
          <mxGeometry relative="1" as="geometry" />
        </mxCell>
        <mxCell id="E7TBdnryxwROGaCkr57B-15" value="Underdark Influence&lt;div&gt;Anarchist War-politic Conflic&lt;br&gt;&lt;div&gt;Theological Crisis on walking the Path to Limbo&lt;/div&gt;&lt;/div&gt;" style="rounded=1;whiteSpace=wrap;html=1;fillColor=#76608a;fontColor=#ffffff;strokeColor=#432D57;" vertex="1" parent="1">
          <mxGeometry x="710" y="260" width="120" height="130" as="geometry" />
        </mxCell>
        <mxCell id="E7TBdnryxwROGaCkr57B-24" value="Council" style="rounded=1;whiteSpace=wrap;html=1;" vertex="1" parent="1">
          <mxGeometry x="-320" y="440" width="120" height="40" as="geometry" />
        </mxCell>
        <mxCell id="E7TBdnryxwROGaCkr57B-25" value="The King" style="rounded=1;whiteSpace=wrap;html=1;" vertex="1" parent="1">
          <mxGeometry x="-80" y="440" width="120" height="40" as="geometry" />
        </mxCell>
        <mxCell id="E7TBdnryxwROGaCkr57B-26" value="War Profiteering" style="rounded=1;whiteSpace=wrap;html=1;" vertex="1" parent="1">
          <mxGeometry x="160" y="440" width="120" height="40" as="geometry" />
        </mxCell>
        <mxCell id="E7TBdnryxwROGaCkr57B-36" style="edgeStyle=orthogonalEdgeStyle;rounded=0;orthogonalLoop=1;jettySize=auto;html=1;exitX=1;exitY=0.5;exitDx=0;exitDy=0;entryX=0.5;entryY=0;entryDx=0;entryDy=0;" edge="1" parent="1" source="E7TBdnryxwROGaCkr57B-27" target="E7TBdnryxwROGaCkr57B-33">
          <mxGeometry relative="1" as="geometry" />
        </mxCell>
        <mxCell id="E7TBdnryxwROGaCkr57B-27" value="Underdark" style="rounded=1;whiteSpace=wrap;html=1;" vertex="1" parent="1">
          <mxGeometry x="560" y="440" width="120" height="40" as="geometry" />
        </mxCell>
        <mxCell id="E7TBdnryxwROGaCkr57B-37" style="edgeStyle=orthogonalEdgeStyle;rounded=0;orthogonalLoop=1;jettySize=auto;html=1;exitX=0;exitY=0.5;exitDx=0;exitDy=0;entryX=0.5;entryY=0;entryDx=0;entryDy=0;" edge="1" parent="1" source="E7TBdnryxwROGaCkr57B-28" target="E7TBdnryxwROGaCkr57B-33">
          <mxGeometry relative="1" as="geometry" />
        </mxCell>
        <mxCell id="E7TBdnryxwROGaCkr57B-28" value="Anarchy" style="rounded=1;whiteSpace=wrap;html=1;" vertex="1" parent="1">
          <mxGeometry x="800" y="440" width="120" height="40" as="geometry" />
        </mxCell>
        <mxCell id="E7TBdnryxwROGaCkr57B-29" value="Limbo" style="rounded=1;whiteSpace=wrap;html=1;" vertex="1" parent="1">
          <mxGeometry x="1040" y="440" width="120" height="40" as="geometry" />
        </mxCell>
        <mxCell id="E7TBdnryxwROGaCkr57B-31" value="" style="endArrow=classic;html=1;rounded=0;startArrow=classic;startFill=1;endFill=1;dashed=1;" edge="1" parent="1">
          <mxGeometry width="50" height="50" relative="1" as="geometry">
            <mxPoint x="380" y="440" as="sourcePoint" />
            <mxPoint x="460" y="440" as="targetPoint" />
          </mxGeometry>
        </mxCell>
        <mxCell id="E7TBdnryxwROGaCkr57B-53" style="edgeStyle=orthogonalEdgeStyle;rounded=0;orthogonalLoop=1;jettySize=auto;html=1;exitX=0;exitY=0.5;exitDx=0;exitDy=0;entryX=0.5;entryY=0;entryDx=0;entryDy=0;" edge="1" parent="1" source="E7TBdnryxwROGaCkr57B-33" target="E7TBdnryxwROGaCkr57B-34">
          <mxGeometry relative="1" as="geometry" />
        </mxCell>
        <mxCell id="E7TBdnryxwROGaCkr57B-33" value="&lt;font style=&quot;font-size: 10px;&quot;&gt;Metallics Output is up!&lt;/font&gt;" style="rounded=1;whiteSpace=wrap;html=1;fillColor=#647687;fontColor=#ffffff;strokeColor=#314354;" vertex="1" parent="1">
          <mxGeometry x="660" y="520" width="80" height="40" as="geometry" />
        </mxCell>
        <mxCell id="E7TBdnryxwROGaCkr57B-52" style="edgeStyle=orthogonalEdgeStyle;rounded=0;orthogonalLoop=1;jettySize=auto;html=1;exitX=1;exitY=0.5;exitDx=0;exitDy=0;entryX=0.25;entryY=0;entryDx=0;entryDy=0;" edge="1" parent="1" source="E7TBdnryxwROGaCkr57B-33" target="E7TBdnryxwROGaCkr57B-49">
          <mxGeometry relative="1" as="geometry" />
        </mxCell>
        <mxCell id="E7TBdnryxwROGaCkr57B-34" value="&lt;p style=&quot;line-height: 60%;&quot;&gt;&lt;font style=&quot;font-size: 8px;&quot;&gt;The Northern Wars have increased Demand for Metallics.&lt;/font&gt;&lt;/p&gt;" style="rounded=1;whiteSpace=wrap;html=1;fillColor=#a20025;fontColor=#ffffff;strokeColor=#6F0000;" vertex="1" parent="1">
          <mxGeometry x="480" y="600" width="240" height="40" as="geometry" />
        </mxCell>
        <mxCell id="E7TBdnryxwROGaCkr57B-38" value="&lt;font style=&quot;font-size: 10px;&quot;&gt;I am a statement from an official.&lt;/font&gt;" style="rounded=1;whiteSpace=wrap;html=1;fillColor=#a20025;fontColor=#ffffff;strokeColor=#6F0000;" vertex="1" parent="1">
          <mxGeometry x="880" y="80" width="120" height="40" as="geometry" />
        </mxCell>
        <mxCell id="E7TBdnryxwROGaCkr57B-39" value="&lt;font style=&quot;font-size: 10px;&quot;&gt;I am a observable or testable fact.&lt;/font&gt;" style="rounded=1;whiteSpace=wrap;html=1;fillColor=#647687;fontColor=#ffffff;strokeColor=#314354;" vertex="1" parent="1">
          <mxGeometry x="880" y="40" width="120" height="40" as="geometry" />
        </mxCell>
        <mxCell id="E7TBdnryxwROGaCkr57B-40" value="&lt;font style=&quot;font-size: 10px;&quot;&gt;Franx have dug into deep profitable veins.&lt;/font&gt;" style="rounded=1;whiteSpace=wrap;html=1;fillColor=#647687;fontColor=#ffffff;strokeColor=#314354;" vertex="1" parent="1">
          <mxGeometry x="600" y="640" width="120" height="40" as="geometry" />
        </mxCell>
        <mxCell id="E7TBdnryxwROGaCkr57B-41" value="House Suremantle" style="rounded=1;whiteSpace=wrap;html=1;fillColor=#a0522d;fontColor=#ffffff;strokeColor=#6D1F00;" vertex="1" parent="1">
          <mxGeometry x="-200" y="480" width="120" height="40" as="geometry" />
        </mxCell>
        <mxCell id="E7TBdnryxwROGaCkr57B-42" value="House Tazatly" style="rounded=1;whiteSpace=wrap;html=1;fillColor=#a0522d;fontColor=#ffffff;strokeColor=#6D1F00;" vertex="1" parent="1">
          <mxGeometry x="-440" y="520" width="120" height="40" as="geometry" />
        </mxCell>
        <mxCell id="E7TBdnryxwROGaCkr57B-43" value="House Franx" style="rounded=1;whiteSpace=wrap;html=1;fillColor=#a0522d;fontColor=#ffffff;strokeColor=#6D1F00;" vertex="1" parent="1">
          <mxGeometry x="-440" y="480" width="120" height="40" as="geometry" />
        </mxCell>
        <mxCell id="E7TBdnryxwROGaCkr57B-44" value="House Battog" style="rounded=1;whiteSpace=wrap;html=1;fillColor=#a0522d;fontColor=#ffffff;strokeColor=#6D1F00;" vertex="1" parent="1">
          <mxGeometry x="-200" y="520" width="120" height="40" as="geometry" />
        </mxCell>
        <mxCell id="E7TBdnryxwROGaCkr57B-46" value="&lt;font style=&quot;font-size: 10px;&quot;&gt;Tazatly are buying cheap Metallics and flipping them.&lt;/font&gt;" style="rounded=1;whiteSpace=wrap;html=1;fillColor=#647687;fontColor=#ffffff;strokeColor=#314354;" vertex="1" parent="1">
          <mxGeometry x="480" y="640" width="120" height="40" as="geometry" />
        </mxCell>
        <mxCell id="E7TBdnryxwROGaCkr57B-65" style="edgeStyle=orthogonalEdgeStyle;rounded=0;orthogonalLoop=1;jettySize=auto;html=1;exitX=0.5;exitY=1;exitDx=0;exitDy=0;entryX=0.5;entryY=0;entryDx=0;entryDy=0;" edge="1" parent="1" source="E7TBdnryxwROGaCkr57B-49" target="E7TBdnryxwROGaCkr57B-62">
          <mxGeometry relative="1" as="geometry" />
        </mxCell>
        <mxCell id="E7TBdnryxwROGaCkr57B-49" value="&lt;font style=&quot;font-size: 10px;&quot;&gt;But I&#39;m still struggling for money!&lt;/font&gt;" style="rounded=1;whiteSpace=wrap;html=1;fillColor=#647687;fontColor=#ffffff;strokeColor=#314354;" vertex="1" parent="1">
          <mxGeometry x="760" y="560" width="80" height="40" as="geometry" />
        </mxCell>
        <mxCell id="E7TBdnryxwROGaCkr57B-54" value="The Council of Houses in the Suremantle Kingdom" style="rounded=1;whiteSpace=wrap;html=1;fillColor=#76608a;fontColor=#ffffff;strokeColor=#432D57;" vertex="1" parent="1">
          <mxGeometry x="-320" y="480" width="120" height="130" as="geometry" />
        </mxCell>
        <mxCell id="E7TBdnryxwROGaCkr57B-59" style="edgeStyle=orthogonalEdgeStyle;rounded=0;orthogonalLoop=1;jettySize=auto;html=1;exitX=0.5;exitY=1;exitDx=0;exitDy=0;entryX=0.5;entryY=0;entryDx=0;entryDy=0;" edge="1" parent="1" source="E7TBdnryxwROGaCkr57B-55" target="E7TBdnryxwROGaCkr57B-58">
          <mxGeometry relative="1" as="geometry" />
        </mxCell>
        <mxCell id="E7TBdnryxwROGaCkr57B-55" value="&lt;font style=&quot;font-size: 10px;&quot;&gt;We should help defend the CWF&lt;/font&gt;" style="rounded=1;whiteSpace=wrap;html=1;fillColor=#d80073;fontColor=#ffffff;strokeColor=#A50040;" vertex="1" parent="1">
          <mxGeometry x="780" y="480" width="80" height="40" as="geometry" />
        </mxCell>
        <mxCell id="E7TBdnryxwROGaCkr57B-60" style="edgeStyle=orthogonalEdgeStyle;rounded=0;orthogonalLoop=1;jettySize=auto;html=1;exitX=0.5;exitY=1;exitDx=0;exitDy=0;entryX=0.5;entryY=0;entryDx=0;entryDy=0;" edge="1" parent="1" source="E7TBdnryxwROGaCkr57B-56" target="E7TBdnryxwROGaCkr57B-58">
          <mxGeometry relative="1" as="geometry">
            <mxPoint x="900" y="560" as="targetPoint" />
          </mxGeometry>
        </mxCell>
        <mxCell id="E7TBdnryxwROGaCkr57B-56" value="&lt;font style=&quot;font-size: 10px;&quot;&gt;We should help Prosper attack&lt;/font&gt;" style="rounded=1;whiteSpace=wrap;html=1;fillColor=#d80073;fontColor=#ffffff;strokeColor=#A50040;" vertex="1" parent="1">
          <mxGeometry x="860" y="480" width="80" height="40" as="geometry" />
        </mxCell>
        <mxCell id="E7TBdnryxwROGaCkr57B-57" value="&lt;font style=&quot;font-size: 10px;&quot;&gt;I am a public opinion.&lt;/font&gt;" style="rounded=1;whiteSpace=wrap;html=1;fillColor=#d80073;fontColor=#ffffff;strokeColor=#A50040;" vertex="1" parent="1">
          <mxGeometry x="880" y="120" width="120" height="40" as="geometry" />
        </mxCell>
        <mxCell id="E7TBdnryxwROGaCkr57B-58" value="&lt;p style=&quot;line-height: 60%;&quot;&gt;&lt;font style=&quot;font-size: 8px;&quot;&gt;The Suremantle Kingdom is to stay neutral in the Northern Conflict.&lt;/font&gt;&lt;/p&gt;" style="rounded=1;whiteSpace=wrap;html=1;fillColor=#a20025;fontColor=#ffffff;strokeColor=#6F0000;" vertex="1" parent="1">
          <mxGeometry x="840" y="560" width="120" height="40" as="geometry" />
        </mxCell>
        <mxCell id="E7TBdnryxwROGaCkr57B-66" style="edgeStyle=orthogonalEdgeStyle;rounded=0;orthogonalLoop=1;jettySize=auto;html=1;exitX=0;exitY=0.5;exitDx=0;exitDy=0;entryX=0.5;entryY=0;entryDx=0;entryDy=0;" edge="1" parent="1" source="E7TBdnryxwROGaCkr57B-61" target="E7TBdnryxwROGaCkr57B-62">
          <mxGeometry relative="1" as="geometry" />
        </mxCell>
        <mxCell id="E7TBdnryxwROGaCkr57B-61" value="&lt;font style=&quot;font-size: 10px;&quot;&gt;Fuck that!&lt;/font&gt;" style="rounded=1;whiteSpace=wrap;html=1;fillColor=#d80073;fontColor=#ffffff;strokeColor=#A50040;" vertex="1" parent="1">
          <mxGeometry x="880" y="600" width="80" height="40" as="geometry" />
        </mxCell>
        <mxCell id="E7TBdnryxwROGaCkr57B-62" value="&lt;span style=&quot;font-size: 10px;&quot;&gt;Loyalists and Liberationists conflict within many large cities.&lt;/span&gt;" style="rounded=1;whiteSpace=wrap;html=1;fillColor=#647687;fontColor=#ffffff;strokeColor=#314354;" vertex="1" parent="1">
          <mxGeometry x="760" y="640" width="80" height="80" as="geometry" />
        </mxCell>
        <mxCell id="E7TBdnryxwROGaCkr57B-67" value="&lt;span style=&quot;font-size: 10px;&quot;&gt;We found metals we&#39;ve never seen before...&lt;/span&gt;" style="rounded=1;whiteSpace=wrap;html=1;fillColor=#647687;fontColor=#ffffff;strokeColor=#314354;" vertex="1" parent="1">
          <mxGeometry x="540" y="680" width="120" height="40" as="geometry" />
        </mxCell>
        <mxCell id="E7TBdnryxwROGaCkr57B-71" style="edgeStyle=orthogonalEdgeStyle;rounded=0;orthogonalLoop=1;jettySize=auto;html=1;exitX=0.5;exitY=1;exitDx=0;exitDy=0;entryX=0.5;entryY=0;entryDx=0;entryDy=0;" edge="1" parent="1" source="E7TBdnryxwROGaCkr57B-68" target="E7TBdnryxwROGaCkr57B-70">
          <mxGeometry relative="1" as="geometry" />
        </mxCell>
        <mxCell id="E7TBdnryxwROGaCkr57B-68" value="&lt;font style=&quot;font-size: 10px;&quot;&gt;We are beginning to understand Planar theology. A part of that has been coming to understand the Four Major Outer Planes, and acknowledging the presence of a Fifth.&lt;/font&gt;" style="rounded=1;whiteSpace=wrap;html=1;fillColor=#647687;fontColor=#ffffff;strokeColor=#314354;" vertex="1" parent="1">
          <mxGeometry x="1000" y="480" width="200" height="80" as="geometry" />
        </mxCell>
        <mxCell id="E7TBdnryxwROGaCkr57B-70" value="&lt;font style=&quot;font-size: 10px;&quot;&gt;I don&#39;t understand what this to me means and I am now scared.&lt;/font&gt;" style="rounded=1;whiteSpace=wrap;html=1;fillColor=#d80073;fontColor=#ffffff;strokeColor=#A50040;" vertex="1" parent="1">
          <mxGeometry x="1060" y="600" width="80" height="80" as="geometry" />
        </mxCell>
      </root>
    </mxGraphModel>
  </diagram>
</mxfile>
